<?xml version="1.0" encoding="UTF-8"?>
<svg version="1.1" xmlns="http://www.w3.org/2000/svg" width="512" height="512">
<path d="M0 0 C0.85442932 -0.00199105 1.70885864 -0.0039821 2.58917975 -0.00603348 C3.52302882 -0.00312064 4.45687789 -0.0002078 5.41902542 0.00279331 C6.91260681 0.00151167 6.91260681 0.00151167 8.43636155 0.00020415 C11.78210245 -0.00144661 15.12779352 0.00406416 18.47352982 0.00952244 C20.86817804 0.00980442 23.26282635 0.00964636 25.65747452 0.00907993 C31.49098707 0.00882227 37.32448323 0.01316376 43.15799204 0.01951759 C49.94567161 0.02666372 56.73334884 0.02816255 63.52103165 0.02930576 C75.62580664 0.03149449 87.73057489 0.03814972 99.83534622 0.04760838 C111.59413494 0.05678713 123.35292183 0.0638657 135.11171341 0.06811619 C135.83650244 0.06837891 136.56129147 0.06864164 137.30804381 0.06891232 C140.94409057 0.07021736 144.58013735 0.07148106 148.21618414 0.07272422 C178.38172346 0.08309125 208.54725461 0.10077903 238.71278763 0.12304783 C238.71278763 5.07304783 238.71278763 10.02304783 238.71278763 15.12304783 C172.38278763 15.12304783 106.05278763 15.12304783 37.71278763 15.12304783 C37.71278763 131.61304783 37.71278763 248.10304783 37.71278763 368.12304783 C95.46278763 368.12304783 153.21278763 368.12304783 212.71278763 368.12304783 C212.71278763 373.40304783 212.71278763 378.68304783 212.71278763 384.12304783 C211.62426058 384.1235926 210.53573353 384.12413736 209.41422081 384.12469864 C182.91461259 384.13910103 156.41516849 384.18214668 129.91565514 384.2551384 C117.10061748 384.28977534 104.28568725 384.31514224 91.47060013 384.31860447 C80.29954233 384.32164614 69.12867592 384.34216421 57.95769203 384.3835724 C52.04399019 384.40488533 46.13056033 384.41751159 40.21681976 384.40920162 C34.64678666 384.40165096 29.07730417 384.41752637 23.5073719 384.45110798 C21.46686615 384.45932888 19.42630551 384.45910585 17.38580513 384.44964504 C2.65890322 383.96952327 2.65890322 383.96952327 -10.28721237 390.12304783 C-15.19837679 396.18696132 -16.45123821 401.50084103 -16.52549362 409.22851658 C-16.53356537 410.02655201 -16.54163712 410.82458744 -16.54995346 411.64680576 C-16.5637799 413.33718803 -16.5745085 415.02759804 -16.58237839 416.71801853 C-16.59387508 418.43750344 -16.61429029 420.1569533 -16.64390182 421.87622166 C-16.68682526 424.36889845 -16.702783 426.86051488 -16.71299362 429.35351658 C-16.73050171 430.11214497 -16.7480098 430.87077335 -16.76604843 431.65239048 C-16.73782194 438.70022091 -14.46272447 443.84634913 -9.59971237 448.93554783 C-0.32151963 455.06265625 9.58196915 454.65331559 20.27528763 454.81054783 C25.69966263 454.91367283 31.12403763 455.01679783 36.71278763 455.12304783 C36.71278763 438.62304783 36.71278763 422.12304783 36.71278763 405.12304783 C123.17278763 405.12304783 209.63278763 405.12304783 298.71278763 405.12304783 C298.71278763 410.40304783 298.71278763 415.68304783 298.71278763 421.12304783 C241.95278763 421.12304783 185.19278763 421.12304783 126.71278763 421.12304783 C126.71278763 432.34304783 126.71278763 443.56304783 126.71278763 455.12304783 C155.60550146 455.06329226 184.49813782 454.98955473 213.39075729 454.89406155 C216.80400857 454.88279377 220.21726027 454.87165525 223.63051224 454.86059666 C224.6497613 454.85729113 224.6497613 454.85729113 225.68960125 454.85391883 C236.68307078 454.81857398 247.67654025 454.79369399 258.67004549 454.77270081 C269.95556677 454.75091632 281.24101464 454.71761932 292.5264774 454.67434627 C298.86317955 454.65041218 305.19980038 454.63168454 311.53654671 454.62543392 C317.50288931 454.61938404 323.46902382 454.59938715 329.43528938 454.56877232 C331.6229597 454.55999065 333.8106572 454.55626977 335.99834442 454.55803967 C338.9907142 454.55969595 341.98245229 454.54296236 344.97473526 454.52177525 C345.8356559 454.52662282 346.69657654 454.5314704 347.58358568 454.53646487 C354.63151326 454.45439831 362.1374499 453.19971507 367.58778763 448.37304783 C368.1214595 447.92445408 368.65513138 447.47586033 369.20497513 447.01367283 C374.67105004 440.15983796 374.1824579 432.71304995 374.22450638 424.31445408 C374.24137426 422.97922734 374.25952731 421.64401627 374.27890396 420.30882359 C374.32618195 416.81549066 374.35613394 413.32222131 374.38234329 409.82867527 C374.41226181 406.25544783 374.45875295 402.68243898 374.50380325 399.10937595 C374.58958301 392.11405827 374.65704011 385.11866761 374.71278763 378.12304783 C373.97673294 378.47238377 373.24067825 378.8217197 372.48231888 379.18164158 C371.50649857 379.63668064 370.53067825 380.0917197 369.52528763 380.56054783 C368.56235794 381.01300877 367.59942825 381.4654697 366.60731888 381.93164158 C362.0894234 383.79123418 358.00053528 384.24796417 353.13824844 384.24330235 C352.02912094 384.24467701 350.91999344 384.24605167 349.77725601 384.24746799 C348.57028564 384.24387272 347.36331528 384.24027744 346.11977005 384.23657322 C344.84132217 384.23671925 343.5628743 384.23686527 342.24568558 384.23701572 C338.7481452 384.23730222 335.25063923 384.2314294 331.75310683 384.22444177 C328.09491892 384.2181836 324.43673019 384.21760248 320.77853775 384.21641636 C313.85487506 384.21331031 306.9312282 384.2051067 300.00757247 384.19506687 C292.12369094 384.18388319 284.23980864 384.1783896 276.35592115 384.17337143 C260.14153379 384.16292349 243.92716335 384.14513628 227.71278763 384.12304783 C227.71278763 378.84304783 227.71278763 373.56304783 227.71278763 368.12304783 C229.31114456 368.11718159 230.9095015 368.11131535 232.55629349 368.10527134 C247.62324187 368.04804515 262.69002785 367.97546025 277.75682449 367.88733292 C285.5027111 367.84241899 293.24855218 367.80299425 300.99452591 367.77661228 C307.74804655 367.75359644 314.50142258 367.72015858 321.25482845 367.67434627 C324.8287983 367.65046217 328.40262537 367.63170198 331.97667313 367.62543392 C335.97225112 367.61823092 339.96733392 367.58775449 343.96278763 367.55542088 C345.72901222 367.55757351 345.72901222 367.55757351 347.53091812 367.55976963 C353.98865198 367.48592222 358.82635289 366.81298406 364.71278763 364.12304783 C365.88841263 363.65898533 365.88841263 363.65898533 367.08778763 363.18554783 C369.26723193 361.76052656 369.73388507 360.53767413 370.71278763 358.12304783 C371.21912766 357.18638247 371.7254677 356.24971712 372.24715137 355.28466797 C374.56917779 349.81989375 374.12934504 344.06427446 374.10046768 338.22462559 C374.10585322 336.92163594 374.11123876 335.61864629 374.11678749 334.2761721 C374.13122408 330.67025829 374.12700306 327.06457338 374.11962068 323.45864713 C374.11488688 319.56558016 374.12740071 315.67256256 374.13763809 311.77951145 C374.1548271 304.15699706 374.15566592 296.5345651 374.15042519 288.91203637 C374.14638256 282.71613412 374.14782815 276.52025621 374.15317345 270.32435513 C374.15392187 269.4422731 374.15467029 268.56019108 374.15544139 267.6513793 C374.15697288 265.85939288 374.15851123 264.06740647 374.16005636 262.27542006 C374.17378169 245.47371343 374.16834341 228.67205336 374.15687115 211.87034779 C374.14693802 196.50198437 374.15988075 181.13374133 374.18380534 165.76539648 C374.20819213 149.9811105 374.21780529 134.19688059 374.21115261 118.41257614 C374.20765955 109.55249209 374.20989824 100.69250064 374.22740364 91.83243084 C374.24212034 84.29033461 374.24276802 76.74839618 374.22533273 69.20630307 C374.21681605 65.35918327 374.21468927 61.51234543 374.22998428 57.66524029 C374.24636744 53.49274918 374.23169435 49.3209393 374.21399307 45.14845371 C374.22359808 43.93531878 374.23320309 42.72218384 374.24309915 41.47228724 C374.16958164 33.06143498 373.00975714 27.57336476 367.02528763 21.31054783 C359.85281344 16.57400827 352.77419678 15.67751966 344.32777786 15.69067478 C343.33159943 15.68048313 342.33542099 15.67029148 341.30905533 15.65979099 C338.04643896 15.62981821 334.78411696 15.62041903 331.52138138 15.61132908 C329.2473695 15.59447076 326.97336687 15.57631898 324.69937515 15.5569315 C318.73677334 15.50955078 312.77420907 15.47966419 306.81148148 15.45349216 C300.71796128 15.42362645 294.62457024 15.37711677 288.531147 15.3320322 C276.5917616 15.24613475 264.65234952 15.17872917 252.71278763 15.12304783 C252.71278763 10.17304783 252.71278763 5.22304783 252.71278763 0.12304783 C266.75185849 0.03021952 280.7908559 -0.04078259 294.83017159 -0.08420086 C301.34974792 -0.10504326 307.8691137 -0.13330033 314.38856888 -0.17870998 C320.68445902 -0.22228622 326.98014709 -0.24611445 333.27617645 -0.25646114 C335.67386046 -0.26383131 338.07153387 -0.27822342 340.46913147 -0.2998724 C343.83688572 -0.32906204 347.20381322 -0.33290155 350.57167435 -0.33105373 C351.55495209 -0.34543484 352.53822983 -0.35981594 353.55130386 -0.37463284 C364.73721 -0.30855897 373.42508161 4.06821982 381.40028763 11.74804783 C388.09355061 18.97677185 390.83298539 27.28106901 390.84700871 36.98763466 C390.84936094 37.68118769 390.85171317 38.37474071 390.85413668 39.0893105 C390.86081941 41.42463301 390.86036867 43.75989979 390.85995865 46.09523106 C390.86325773 47.78201267 390.86698339 49.46879349 390.87110013 51.15557331 C390.88112329 55.79994561 390.88483743 60.444305 390.88748944 65.08868659 C390.89139157 70.09433233 390.90096999 75.09996783 390.9097023 80.10560703 C390.92946958 92.19901675 390.93953339 104.29242731 390.94843009 116.38584915 C390.95281267 122.08018527 390.95817957 127.77452047 390.96341896 133.46885586 C390.98043172 152.39714363 390.99492594 171.32543081 391.0021677 190.25372505 C391.00407761 195.16630205 391.00599794 200.07887905 391.00795364 204.99145603 C391.00843738 206.21246067 391.00892112 207.4334653 391.00941952 208.69147008 C391.01772 228.47138448 391.04305701 248.2512384 391.07553432 268.03112639 C391.10860275 288.33650018 391.12661628 308.64184324 391.12981194 328.94724411 C391.13197727 340.34885084 391.14072923 351.75036939 391.16627312 363.15194988 C391.18797714 372.86206257 391.19603198 382.57206567 391.18630634 392.28219987 C391.18176077 397.23545286 391.18366293 402.18847971 391.20306778 407.1417017 C391.22069375 411.68010052 391.21970627 416.21810814 391.20417049 420.75651108 C391.20179356 422.39453539 391.20612238 424.03258675 391.21799914 425.67056973 C391.31249879 439.56926249 389.1069375 450.61039231 379.05263138 460.80664158 C365.71839898 472.98665796 348.44390446 471.41010232 331.51259232 471.35009861 C329.27439758 471.34953374 327.03620248 471.34985252 324.79800797 471.35098362 C318.75135791 471.35155519 312.70478792 471.33983258 306.65815639 471.3258357 C300.32808404 471.31329569 293.99800965 471.31215527 287.66792679 471.30978489 C277.05281916 471.30428381 266.437743 471.29180886 255.82265091 471.27392673 C244.89459249 471.25553666 233.96654202 471.24139551 223.03847122 471.23291111 C222.02612825 471.23212294 222.02612825 471.23212294 220.99333391 471.23131885 C217.60719739 471.22870856 214.22106083 471.22618119 210.83492422 471.22369504 C182.79419104 471.20300005 154.7534927 471.16725267 126.71278763 471.12304783 C126.71278763 484.65304783 126.71278763 498.18304783 126.71278763 512.12304783 C121.11556575 511.42339509 116.18266979 510.57111219 110.84560013 509.02148533 C109.36793001 508.60932916 107.89005893 508.19789293 106.41200638 507.78711033 C104.12369849 507.14507063 101.83728947 506.49790382 99.55409622 505.83789158 C87.2908806 502.20275381 87.2908806 502.20275381 74.71278763 503.12304783 C73.4319429 503.43435642 72.15109818 503.74566502 70.83143997 504.0664072 C66.31474155 505.20559571 61.82625854 506.44053939 57.33778763 507.68554783 C55.02188277 508.32440983 52.70540788 508.96085412 50.38719559 509.59129429 C48.95448956 509.98121576 47.52310945 510.37605249 46.09331131 510.77650547 C42.79408002 511.67730014 40.16973897 512.12304783 36.71278763 512.12304783 C36.71278763 498.59304783 36.71278763 485.06304783 36.71278763 471.12304783 C26.39285275 471.20162102 26.39285275 471.20162102 16.07313919 471.30322361 C1.34194308 471.35939422 -11.62407862 470.29088599 -23.09971237 459.99804783 C-28.91476145 453.73460942 -33.41507614 444.76637259 -33.4102602 436.11694813 C-33.41225125 435.32521993 -33.4142423 434.53349173 -33.41629368 433.71777177 C-33.41338084 432.85395977 -33.410468 431.99014777 -33.40746689 431.10015965 C-33.40832131 430.17794266 -33.40917574 429.25572568 -33.41005605 428.30556273 C-33.41170606 425.208572 -33.40619727 422.11163516 -33.40073776 419.01464939 C-33.40045576 416.79733882 -33.40061388 414.58002815 -33.40118027 412.36271763 C-33.40146774 406.33627904 -33.39557909 400.30986026 -33.38860631 394.28342628 C-33.38236444 387.98800411 -33.38176831 381.69258151 -33.3805809 375.39715672 C-33.37782372 364.82840735 -33.37157313 354.2596645 -33.36265182 343.69091892 C-33.35347249 332.80517711 -33.3463942 321.91943727 -33.34214401 311.03369236 C-33.34188129 310.36266925 -33.34161857 309.69164614 -33.34134788 309.00028899 C-33.34004284 305.63395551 -33.33877913 302.26762201 -33.33753598 298.90128851 C-33.32707717 270.97520321 -33.30948247 243.04912603 -33.28721237 215.12304783 C-28.00721237 215.12304783 -22.72721237 215.12304783 -17.28721237 215.12304783 C-17.28721237 267.59304783 -17.28721237 320.06304783 -17.28721237 374.12304783 C-13.65721237 372.47304783 -10.02721237 370.82304783 -6.28721237 369.12304783 C2.77322378 366.85793879 12.37350381 368.12304783 21.71278763 368.12304783 C21.71278763 251.63304783 21.71278763 135.14304783 21.71278763 15.12304783 C4.85608186 14.96470093 4.85608186 14.96470093 -10.16221237 21.87304783 C-10.69588425 22.32164158 -11.22955612 22.77023533 -11.77939987 23.23242283 C-15.73903321 28.19735168 -16.66282439 33.16268123 -16.68593979 39.380723 C-16.69258662 40.07682432 -16.69923344 40.77292565 -16.70608169 41.49012095 C-16.72461567 43.80403181 -16.72211301 46.11742121 -16.71958542 48.43139744 C-16.72860848 50.09744078 -16.73893703 51.76347748 -16.75046921 53.42950535 C-16.7780015 57.93929522 -16.7873186 62.448959 -16.79332328 66.95882201 C-16.80271676 71.6767463 -16.82892095 76.39457677 -16.8533287 81.11244297 C-16.89697058 90.04055657 -16.92553176 98.96865193 -16.94865209 107.89683968 C-16.97571614 118.06373084 -17.01962692 128.2305275 -17.06494081 138.39735115 C-17.15775399 159.30586747 -17.22885243 180.2144094 -17.28721237 201.12304783 C-22.56721237 201.12304783 -27.84721237 201.12304783 -33.28721237 201.12304783 C-33.37992418 179.01743053 -33.45125014 156.91186029 -33.49446106 134.80608749 C-33.51506055 124.54131216 -33.5431311 114.27666006 -33.58897018 104.01196384 C-33.62891804 95.0621939 -33.65466417 86.11251324 -33.66356635 77.16265661 C-33.66876765 72.42651901 -33.6809379 67.69063678 -33.7101326 62.95458126 C-33.73742745 58.49025279 -33.74562913 54.02628315 -33.7396431 49.56187916 C-33.74073707 47.92973406 -33.74860683 46.29757606 -33.76403427 44.6655035 C-33.87967431 31.7927139 -32.30057995 20.95777744 -23.28721237 11.12304783 C-16.9179907 4.66390774 -9.25676862 -0.00477153 0 0 Z M52.71278763 421.12304783 C52.71278763 444.55304783 52.71278763 467.98304783 52.71278763 492.12304783 C61.62278763 489.81304783 70.53278763 487.50304783 79.71278763 485.12304783 C90.22448238 486.43700967 100.46233497 489.4490167 110.71278763 492.12304783 C110.71278763 468.69304783 110.71278763 445.26304783 110.71278763 421.12304783 C91.57278763 421.12304783 72.43278763 421.12304783 52.71278763 421.12304783 Z " fill="#000000" transform="translate(77.28721237182617,-0.1230478286743164)"/>
<path d="M0 0 C101.64 0 203.28 0 308 0 C308 55.77 308 111.54 308 169 C206.36 169 104.72 169 0 169 C0 113.23 0 57.46 0 0 Z M16 16 C16 61.21 16 106.42 16 153 C107.08 153 198.16 153 292 153 C292 107.79 292 62.58 292 16 C200.92 16 109.84 16 16 16 Z " fill="#000000" transform="translate(129,103)"/>
<path d="M0 0 C5.28 0 10.56 0 16 0 C19.4210607 3.5939423 20.90110127 5.72920341 23 10 C24.23775534 12.0087399 25.4923348 14.00718987 26.76171875 15.99609375 C28.07313526 18.14150626 29.38163789 20.28870214 30.6875 22.4375 C32.09319503 24.73941923 33.50145411 27.03976382 34.91015625 29.33984375 C35.25757874 29.90758514 35.60500122 30.47532654 35.96295166 31.06027222 C39.58689994 36.97415758 43.28958349 42.83707496 47.01831055 48.68530273 C50.4453002 54.07272375 53.71109238 59.5184873 57 65 C57.33 43.55 57.66 22.1 58 0 C63.28 0 68.56 0 74 0 C74 32.34 74 64.68 74 98 C58 98 58 98 54.55859375 95.125 C53.44628906 93.17749023 53.44628906 93.17749023 52.4375 91 C51.5683844 89.42729062 50.69716882 87.8557405 49.82421875 86.28515625 C49.3761084 85.43195801 48.92799805 84.57875977 48.46630859 83.69970703 C45.80394964 78.7978813 42.74195199 74.14252622 39.75 69.4375 C38.61757253 67.62508258 37.48746521 65.81121395 36.359375 63.99609375 C29.91710553 53.65729033 23.45628541 43.33005666 17 33 C16.67 54.78 16.34 76.56 16 99 C10.72 99 5.44 99 0 99 C0 66.33 0 33.66 0 0 Z " fill="#000000" transform="translate(226,136)"/>
<path d="M0 0 C1.25139771 0.00241699 1.25139771 0.00241699 2.52807617 0.00488281 C11.97975965 0.19119486 20.28806463 2.52266138 27.8125 8.375 C27.04552204 9.79375765 26.27373222 11.20991452 25.5 12.625 C25.07074219 13.41390625 24.64148438 14.2028125 24.19921875 15.015625 C22.8728786 17.27227134 21.42365776 19.31498597 19.8125 21.375 C17.06854871 20.74504209 14.76950274 19.95072993 12.125 18.875 C2.516261 15.30047831 -6.06175585 16.22441191 -15.44921875 20.375 C-22.38899593 24.30163228 -29.39779909 31.112199 -31.78515625 38.8828125 C-33.5231081 49.64798999 -33.14725803 59.4941205 -26.64453125 68.515625 C-20.72968031 75.82459413 -13.36853544 80.67926734 -3.890625 81.74609375 C5.04165329 81.91786833 11.97413136 81.00391545 18.6171875 74.6484375 C23.07276751 69.26184077 24.31629145 64.2395735 26.8125 57.375 C18.2325 57.375 9.6525 57.375 0.8125 57.375 C0.8125 52.095 0.8125 46.815 0.8125 41.375 C15.0025 41.375 29.1925 41.375 43.8125 41.375 C43.8125 59.22977411 42.3743619 74.11691095 29.78125 87.59375 C19.99320066 96.44960416 8.50877108 99.02431648 -4.41015625 98.72265625 C-16.76955045 97.58513186 -28.31645216 92.04891344 -37.1875 83.375 C-48.06928421 70.22119492 -50.46184521 55.93801544 -49.1875 39.375 C-46.89309485 27.2867626 -39.74802878 16.98185551 -30.1875 9.375 C-20.75474233 3.46081067 -11.15750133 -0.02247005 0 0 Z " fill="#000000" transform="translate(365.1875,135.625)"/>
<path d="M0 0 C14.19 0 28.38 0 43 0 C43 5.28 43 10.56 43 16 C34.09 16 25.18 16 16 16 C16 24.25 16 32.5 16 41 C24.25 41 32.5 41 41 41 C41 46.28 41 51.56 41 57 C32.75 57 24.5 57 16 57 C16 65.25 16 73.5 16 82 C24.91 82 33.82 82 43 82 C43 87.28 43 92.56 43 98 C28.81 98 14.62 98 0 98 C0 65.66 0 33.32 0 0 Z " fill="#000000" transform="translate(163,136)"/>
<path d="M0 0 C5.28 0 10.56 0 16 0 C16 5.28 16 10.56 16 16 C10.72 16 5.44 16 0 16 C0 10.72 0 5.44 0 0 Z " fill="#000000" transform="translate(390,405)"/>
</svg>
